<svg width="73" height="73" viewBox="0 0 73 73" fill="none" xmlns="http://www.w3.org/2000/svg">
<path d="M23.5198 47.1939H23.5232C23.5259 47.1939 23.5287 47.1934 23.5315 47.1934H62.3066C63.2613 47.1934 64.1006 46.5601 64.3629 45.6423L72.9176 15.7009C73.1019 15.0554 72.9727 14.3614 72.5689 13.8256C72.1646 13.2898 71.5325 12.9746 70.8613 12.9746H18.5875L17.0587 6.09466C16.8409 5.1161 15.9732 4.41992 14.9707 4.41992H2.13867C0.95739 4.41992 0 5.37731 0 6.55859C0 7.73988 0.95739 8.69727 2.13867 8.69727H13.2553C13.526 9.91642 20.5714 41.6211 20.9768 43.4451C18.7039 44.4331 17.1094 46.6993 17.1094 49.332C17.1094 52.8698 19.9877 55.748 23.5254 55.748H62.3066C63.4879 55.748 64.4453 54.7907 64.4453 53.6094C64.4453 52.4281 63.4879 51.4707 62.3066 51.4707H23.5254C22.3463 51.4707 21.3867 50.5111 21.3867 49.332C21.3867 48.1546 22.343 47.1967 23.5198 47.1939V47.1939ZM68.0259 17.252L60.6932 42.916H25.2408L19.5377 17.252H68.0259Z" fill="black"/>
<path d="M21.3867 62.1641C21.3867 65.7018 24.265 68.5801 27.8027 68.5801C31.3405 68.5801 34.2188 65.7018 34.2188 62.1641C34.2188 58.6263 31.3405 55.748 27.8027 55.748C24.265 55.748 21.3867 58.6263 21.3867 62.1641ZM27.8027 60.0254C28.9818 60.0254 29.9414 60.985 29.9414 62.1641C29.9414 63.3431 28.9818 64.3027 27.8027 64.3027C26.6237 64.3027 25.6641 63.3431 25.6641 62.1641C25.6641 60.985 26.6237 60.0254 27.8027 60.0254Z" fill="black"/>
<path d="M51.6133 62.1641C51.6133 65.7018 54.4916 68.5801 58.0293 68.5801C61.567 68.5801 64.4453 65.7018 64.4453 62.1641C64.4453 58.6263 61.567 55.748 58.0293 55.748C54.4916 55.748 51.6133 58.6263 51.6133 62.1641ZM58.0293 60.0254C59.2084 60.0254 60.168 60.985 60.168 62.1641C60.168 63.3431 59.2084 64.3027 58.0293 64.3027C56.8502 64.3027 55.8906 63.3431 55.8906 62.1641C55.8906 60.985 56.8502 60.0254 58.0293 60.0254Z" fill="black"/>
</svg>
